HIERARCHY
ROOT Hips
{
	OFFSET 0.000000 0.000000 0.000000
	CHANNELS 6 Xposition Yposition Zposition Xrotation Yrotation Zrotation
	JOINT LeftUpLeg_virtual
	{
		OFFSET 0.000000 0.000000 0.000000
		CHANNELS 3 Xrotation Yrotation Zrotation
		JOINT LeftUpLeg
		{
			OFFSET 15.427100 -6.655098 0.678600
			CHANNELS 3 Xrotation Yrotation Zrotation
			JOINT LeftLeg
			{
				OFFSET 4.081073 -39.591068 13.024000
				CHANNELS 3 Xrotation Yrotation Zrotation
				JOINT LeftFoot
				{
					OFFSET -4.081074 -37.707932 -15.979700
					CHANNELS 3 Xrotation Yrotation Zrotation
					JOINT LeftToeBase
					{
						OFFSET 5.346399 -15.068900 20.645000
						CHANNELS 3 Xrotation Yrotation Zrotation
						JOINT LeftToe_End
						{
							OFFSET 2.754700 0.931300 11.300900
							CHANNELS 3 Xrotation Yrotation Zrotation
							End Site
							{
								OFFSET 0 0 0
							}
						}
					}
				}
			}
		}
	}
	JOINT RightUpLeg_virtual
	{
		OFFSET 0.000000 0.000000 0.000000
		CHANNELS 3 Xrotation Yrotation Zrotation
		JOINT RightUpLeg
		{
			OFFSET -15.569500 -6.655098 0.678600
			CHANNELS 3 Xrotation Yrotation Zrotation
			JOINT RightLeg
			{
				OFFSET -4.081825 -39.591045 13.023800
				CHANNELS 3 Xrotation Yrotation Zrotation
				JOINT RightFoot
				{
					OFFSET 4.081824 -37.707954 -15.979600
					CHANNELS 3 Xrotation Yrotation Zrotation
					JOINT RightToeBase
					{
						OFFSET -5.346400 -15.068900 20.645000
						CHANNELS 3 Xrotation Yrotation Zrotation
						JOINT RightToe_End
						{
							OFFSET -2.754700 0.931300 11.300900
							CHANNELS 3 Xrotation Yrotation Zrotation
							End Site
							{
								OFFSET 0 0 0
							}
						}
					}
				}
			}
		}
	}
	JOINT Spine_virtual
	{
		OFFSET 0.000000 0.000000 0.000000
		CHANNELS 3 Xrotation Yrotation Zrotation
		JOINT Spine
		{
			OFFSET -0.279200 12.230698 -2.892100
			CHANNELS 3 Xrotation Yrotation Zrotation
			JOINT Spine1
			{
				OFFSET -0.232667 10.192268 -1.242267
				CHANNELS 3 Xrotation Yrotation Zrotation
				JOINT Spine1_split
				{
					OFFSET -0.232667 10.192268 -1.242267
					CHANNELS 3 Xrotation Yrotation Zrotation
					JOINT Spine2
					{
						OFFSET -0.232667 10.192268 -1.242267
						CHANNELS 3 Xrotation Yrotation Zrotation
						JOINT Neck_virtual
						{
							OFFSET 0.000000 0.000000 0.000000
							CHANNELS 3 Xrotation Yrotation Zrotation
							JOINT Neck
							{
								OFFSET -0.418800 17.814194 8.416900
								CHANNELS 3 Xrotation Yrotation Zrotation
								JOINT Head
								{
									OFFSET 0.000000 7.031097 3.806800
									CHANNELS 3 Xrotation Yrotation Zrotation
									JOINT HeadTop_End
									{
										OFFSET 0.000000 24.646606 12.978600
										CHANNELS 3 Xrotation Yrotation Zrotation
										End Site
										{
											OFFSET 0 0 0
										}
									}
								}
							}
						}
						JOINT LeftShoulder_virtual
						{
							OFFSET 0.000000 0.000000 0.000000
							CHANNELS 3 Xrotation Yrotation Zrotation
							JOINT LeftShoulder
							{
								OFFSET 8.476499 7.247704 -3.868750
								CHANNELS 3 Xrotation Yrotation Zrotation
								JOINT LeftShoulder_split
								{
									OFFSET 8.476499 7.247704 -3.868750
									CHANNELS 3 Xrotation Yrotation Zrotation
									JOINT LeftArm
									{
										OFFSET 9.308998 -2.777710 0.208600
										CHANNELS 3 Xrotation Yrotation Zrotation
										JOINT LeftForeArm
										{
											OFFSET 29.972298 0.000000 0.000000
											CHANNELS 3 Xrotation Yrotation Zrotation
											JOINT LeftHand
											{
												OFFSET 26.026505 0.000000 0.000000
												CHANNELS 3 Xrotation Yrotation Zrotation
												End Site
												{
													OFFSET 0 0 0
												}
											}
										}
									}
								}
							}
						}
						JOINT RightShoulder_virtual
						{
							OFFSET 0.000000 0.000000 0.000000
							CHANNELS 3 Xrotation Yrotation Zrotation
							JOINT RightShoulder
							{
								OFFSET -7.570500 7.247704 -3.868750
								CHANNELS 3 Xrotation Yrotation Zrotation
								JOINT RightShoulder_split
								{
									OFFSET -7.570500 7.247704 -3.868750
									CHANNELS 3 Xrotation Yrotation Zrotation
									JOINT RightArm
									{
										OFFSET -9.308998 -2.777710 0.208500
										CHANNELS 3 Xrotation Yrotation Zrotation
										JOINT RightForeArm
										{
											OFFSET -29.972300 0.000000 0.000000
											CHANNELS 3 Xrotation Yrotation Zrotation
											JOINT RightHand
											{
												OFFSET -26.026505 0.000000 0.000000
												CHANNELS 3 Xrotation Yrotation Zrotation
												End Site
												{
													OFFSET 0 0 0
												}
											}
										}
									}
								}
							}
						}
					}
				}
			}
		}
	}
}
MOTION
Frames: 11
Frame Time: 0.03333333
-0.391000 68.324623 -0.619976 0.000000 0.000000 0.000000 7.505424 3.310562 -0.191723 31.685278 18.879657 4.391830 22.218920 -9.751226 5.797701 -53.630509 -0.644138 0.335492 -14.032927 -0.000001 -0.000000 0.000000 0.000000 0.000000 7.505424 3.310562 -0.191723 -64.460341 0.200513 -4.266226 69.011883 -2.210866 0.997535 -11.978566 3.580221 -3.520363 1.552309 -0.009833 1.128318 0.000000 0.000000 0.000000 7.505424 3.310562 -0.191723 1.423985 -3.078135 -1.330585 4.463942 -2.897044 3.069452 0.000000 0.000000 0.000000 0.000000 0.000000 0.000000 4.470556 -2.960905 2.997961 -6.646408 2.329847 -0.789044 -22.799697 6.183980 9.466394 0.000000 0.000000 0.000000 4.470556 -2.960905 2.997961 -0.863856 7.389834 -0.025977 0.000000 0.000000 0.000000 -11.563463 10.383920 -66.345521 -179.999978 -64.819889 -179.999964 0.000000 0.000000 0.000000 4.470556 -2.960905 2.997961 0.518554 -7.917609 14.973079 0.000000 0.000000 0.000000 -19.108962 0.823923 54.260003 -179.999909 65.206108 179.999909 0.000000 0.000000 0.000000 
-0.166334 74.282433 0.109924 0.000000 0.000000 0.000000 7.047694 6.542862 1.153370 25.631096 14.882970 3.790116 27.164675 -7.014840 8.487022 -39.448495 2.663178 -0.775213 -32.297291 -0.000002 -0.000001 0.000000 0.000000 0.000000 7.047694 6.542862 1.153370 -56.438198 0.147260 -6.951589 61.313618 -3.265677 0.777377 -11.799490 3.250052 -3.971924 1.524489 -0.009604 1.113868 0.000000 0.000000 0.000000 7.047694 6.542862 1.153370 2.196734 -2.915543 -0.793338 3.099216 -3.162404 2.168580 0.000000 0.000000 0.000000 0.000000 0.000000 0.000000 3.091625 -3.180354 2.120446 -5.647365 2.000596 -1.393996 -18.366987 3.484120 8.410581 0.000000 0.000000 0.000000 3.091625 -3.180354 2.120446 -0.472603 4.837148 -0.286772 0.000000 0.000000 0.000000 -18.246980 6.118551 -64.201114 -179.999991 -68.040746 179.999991 0.000000 0.000000 0.000000 3.091625 -3.180354 2.120446 0.323428 -7.582998 12.788913 0.000000 0.000000 0.000000 -22.735700 4.589339 55.000515 -179.999978 65.453177 179.999991 0.000000 0.000000 0.000000 
0.291666 80.902985 -0.051929 0.000000 0.000000 0.000000 5.831768 9.667252 1.681193 13.368354 10.391034 5.351638 37.904415 -0.473005 10.373176 -11.308177 7.361237 -9.371201 -46.572888 -0.000009 -0.000002 0.000000 0.000000 0.000000 5.831768 9.667252 1.681193 -47.638777 -0.809258 -7.879119 51.097075 -5.689209 -0.592526 -9.191757 3.234234 -4.793740 -0.143023 -0.000002 -0.000002 0.000000 0.000000 0.000000 5.831768 9.667252 1.681193 4.064224 -2.437142 0.730668 2.040742 -3.016033 1.391133 0.000000 0.000000 0.000000 0.000000 0.000000 0.000000 2.006033 -2.989533 1.398627 -4.440900 1.612600 -2.281642 -14.196194 -0.020069 7.284551 0.000000 0.000000 0.000000 2.006033 -2.989533 1.398627 0.068471 1.355724 -0.866198 0.000000 0.000000 0.000000 -25.917125 -0.435044 -62.080682 179.999937 -72.913991 179.999950 0.000000 0.000000 0.000000 2.006033 -2.989533 1.398627 0.210355 -5.995285 10.576177 0.000000 0.000000 0.000000 -27.995663 7.628515 54.628720 -179.999950 66.269132 179.999950 0.000000 0.000000 0.000000 
0.743343 85.971619 -1.657486 0.000000 0.000000 0.000000 4.280073 12.730765 0.694214 3.584757 7.331779 6.411620 41.950639 5.098843 7.858198 15.878014 1.852630 -3.356042 -40.272284 5.556784 -22.216375 0.000000 0.000000 0.000000 4.280073 12.730765 0.694214 -41.983014 -1.289981 -7.929494 42.372960 -8.698036 -1.965248 -0.309222 1.865673 -1.673434 -5.836451 0.000001 -0.000003 0.000000 0.000000 0.000000 4.280073 12.730765 0.694214 5.821639 -1.846252 3.212320 1.949358 -2.659795 0.899519 0.000000 0.000000 0.000000 0.000000 0.000000 0.000000 1.896969 -2.616142 0.938718 -3.296967 1.144835 -3.044796 -10.632061 -3.935967 6.843427 0.000000 0.000000 0.000000 1.896969 -2.616142 0.938718 0.568136 -2.178351 -0.868055 0.000000 0.000000 0.000000 -35.106701 -7.404375 -61.207053 -180.000005 -78.716762 -179.999991 0.000000 0.000000 0.000000 1.896969 -2.616142 0.938718 0.207311 -3.936308 8.797188 0.000000 0.000000 0.000000 -35.419131 9.963638 52.813427 -179.999978 68.060827 179.999991 0.000000 0.000000 0.000000 
0.925984 88.852966 -3.185734 0.000000 0.000000 0.000000 2.995168 14.682702 -1.214835 -5.513917 5.605913 7.420068 46.625392 3.074136 2.626511 37.851925 -0.900673 1.441936 42.363736 9.286858 18.103708 0.000000 0.000000 0.000000 2.995168 14.682702 -1.214835 -39.378598 -1.950442 -6.618540 36.911667 -8.680014 -2.835697 11.343985 -3.534333 4.099929 -14.594415 -0.000000 -0.000002 0.000000 0.000000 0.000000 2.995168 14.682702 -1.214835 6.473910 -0.962705 5.943298 2.978385 -2.041427 0.410065 0.000000 0.000000 0.000000 0.000000 0.000000 0.000000 2.915020 -2.015024 0.447749 -2.420705 0.649274 -3.417442 -7.903158 -7.562122 7.271151 0.000000 0.000000 0.000000 2.915020 -2.015024 0.447749 1.014099 -5.352210 0.544284 0.000000 0.000000 0.000000 -45.652247 -13.589400 -61.251545 -179.997792 -84.906642 -179.997737 0.000000 0.000000 0.000000 2.915020 -2.015024 0.447749 0.089336 -4.052607 7.037430 0.000000 0.000000 0.000000 -44.633599 13.796004 52.404749 -179.999773 72.352535 179.999759 0.000000 0.000000 0.000000 
0.682641 90.260277 -3.622971 0.000000 0.000000 0.000000 2.405933 14.655706 -2.796454 -16.821559 5.091217 9.048724 60.891642 3.859798 -0.444433 40.249017 -1.161340 1.067338 9.866223 -0.000517 0.331568 0.000000 0.000000 0.000000 2.405933 14.655706 -2.796454 -38.272688 -3.118630 -5.142558 33.806882 -8.220896 -1.678442 19.261931 -1.910181 6.608942 -16.299398 0.000034 -0.005785 0.000000 0.000000 0.000000 2.405933 14.655706 -2.796454 6.245149 0.066488 6.998943 4.448039 -1.372283 0.550577 0.000000 0.000000 0.000000 0.000000 0.000000 0.000000 4.392855 -1.358247 0.586389 -1.596928 0.485280 -3.771820 -5.934758 -9.578223 8.117677 0.000000 0.000000 0.000000 4.392855 -1.358247 0.586389 1.219305 -6.840144 2.759383 0.000000 0.000000 0.000000 -56.339608 -18.196319 -62.362694 0.029938 -88.669837 0.029645 0.000000 0.000000 0.000000 4.392855 -1.358247 0.586389 -0.418006 -6.889078 3.645290 0.000000 0.000000 0.000000 -55.571386 19.095904 56.081304 -179.999855 80.569226 179.999841 0.000000 0.000000 0.000000 
0.239113 90.314049 -3.058270 0.000000 0.000000 0.000000 1.620622 13.260682 -3.781428 -27.558490 5.670505 10.601501 73.930118 4.419179 -2.450411 39.379661 -1.182964 1.370451 10.496709 -0.000010 0.000003 0.000000 0.000000 0.000000 1.620622 13.260682 -3.781428 -37.947011 -4.838752 -0.151931 33.523132 -4.450611 -1.218535 20.400983 1.396360 1.310390 -17.747767 -0.000113 0.001550 0.000000 0.000000 0.000000 1.620622 13.260682 -3.781428 7.032396 1.106502 6.509049 5.162423 -0.950531 1.327612 0.000000 0.000000 0.000000 0.000000 0.000000 0.000000 5.114984 -0.892415 1.373416 -0.006647 0.754126 -4.132360 -4.747839 -9.463273 8.950177 0.000000 0.000000 0.000000 5.114984 -0.892415 1.373416 1.174584 -6.511879 5.488877 0.000000 0.000000 0.000000 -66.383374 -19.791086 -64.668600 -0.000737 -82.740987 -0.000709 0.000000 0.000000 0.000000 5.114984 -0.892415 1.373416 -1.198277 -9.446106 -1.192411 0.000000 0.000000 0.000000 -68.157604 22.444265 62.195067 0.007827 87.962216 -0.007794 0.000000 0.000000 0.000000 
-0.285466 88.892181 -1.615620 0.000000 0.000000 0.000000 -0.295238 11.875586 -3.930420 -37.019359 6.396002 11.546476 85.624023 4.929952 -3.015405 37.484628 -0.975848 2.668905 10.864341 -0.000006 -0.000002 0.000000 0.000000 0.000000 -0.295238 11.875586 -3.930420 -36.840930 -5.743194 5.742240 37.287533 0.492170 -2.760832 17.526441 1.653894 -1.828541 -17.639910 0.000624 -0.011998 0.000000 0.000000 0.000000 -0.295238 11.875586 -3.930420 9.510476 1.750256 5.303043 4.813434 -0.918602 1.966179 0.000000 0.000000 0.000000 0.000000 0.000000 0.000000 4.770642 -0.770863 2.017520 2.727760 1.227603 -4.117913 -3.972202 -7.847934 9.916276 0.000000 0.000000 0.000000 4.770642 -0.770863 2.017520 1.292851 -7.411985 7.174134 0.000000 0.000000 0.000000 -74.254682 -19.742218 -64.317965 0.000307 -78.191705 0.000320 0.000000 0.000000 0.000000 4.770642 -0.770863 2.017520 -1.509835 -6.959345 -7.781837 0.000000 0.000000 0.000000 -77.718209 19.877722 64.551517 0.000243 77.932192 -0.000236 0.000000 0.000000 0.000000 
-0.655707 86.336342 0.590611 0.000000 0.000000 0.000000 -2.936113 11.505332 -3.490341 -45.501375 6.691651 11.218230 95.795561 5.665028 -2.506737 35.431231 -0.670412 5.003877 10.997411 0.000002 -0.000002 0.000000 0.000000 0.000000 -2.936113 11.505332 -3.490341 -34.235995 -6.485951 7.294985 43.634704 0.267117 -2.931701 9.803745 1.714508 -3.309011 -19.095821 -0.000003 0.000002 0.000000 0.000000 0.000000 -2.936113 11.505332 -3.490341 12.304619 1.789837 4.142200 4.378283 -1.227937 2.184095 0.000000 0.000000 0.000000 0.000000 0.000000 0.000000 4.349970 -0.997352 2.245316 5.525320 1.671868 -3.855083 -3.556281 -6.069794 11.031911 0.000000 0.000000 0.000000 4.349970 -0.997352 2.245316 1.681150 -8.837518 10.762817 0.000000 0.000000 0.000000 -80.175206 -17.035136 -63.387079 -0.000006 -76.684282 0.000006 0.000000 0.000000 0.000000 4.349970 -0.997352 2.245316 -1.466463 -3.826224 -15.559798 0.000000 0.000000 0.000000 -83.463669 13.436022 64.734989 0.000071 73.211384 -0.000076 0.000000 0.000000 0.000000 
-0.652680 83.168930 3.076313 0.000000 0.000000 0.000000 -5.282466 12.074920 -2.889495 -53.780875 6.008302 9.963779 104.077822 6.833595 -1.581824 34.922911 -0.622258 6.957209 11.140037 0.000006 -0.000001 0.000000 0.000000 0.000000 -5.282466 12.074920 -2.889495 -27.986519 -7.926873 5.827778 47.013879 0.696509 -0.913734 -5.723367 2.256555 -4.845328 -12.090640 0.000001 -0.000002 0.000000 0.000000 0.000000 -5.282466 12.074920 -2.889495 13.909434 1.506381 3.223944 4.528583 -1.595766 2.084647 0.000000 0.000000 0.000000 0.000000 0.000000 0.000000 4.519715 -1.316297 2.156810 7.678624 1.823755 -3.265415 -4.051463 -5.140929 11.759949 0.000000 0.000000 0.000000 4.519715 -1.316297 2.156810 1.694798 -8.154512 15.786883 0.000000 0.000000 0.000000 -84.872716 -12.975907 -64.863568 -0.000068 -78.779579 -0.000035 0.000000 0.000000 0.000000 4.519715 -1.316297 2.156810 -2.354562 -5.768609 -20.661411 0.000000 0.000000 0.000000 -88.017492 8.608142 67.413045 0.000050 73.093987 -0.000043 0.000000 0.000000 0.000000 
-0.162351 79.028305 5.583233 0.000000 0.000000 0.000000 -7.248752 12.184952 -1.820146 -61.947958 6.023222 8.155187 111.040878 7.910834 -0.077992 35.713102 0.306517 8.028316 11.258284 0.000007 0.000002 0.000000 0.000000 0.000000 -7.248752 12.184952 -1.820146 -24.923902 -8.689829 4.719351 53.069648 0.599955 0.061234 -18.491754 3.754683 -7.910312 -2.774123 0.000000 0.000002 0.000000 0.000000 0.000000 -7.248752 12.184952 -1.820146 14.873205 1.350905 1.896854 4.517214 -1.688274 1.794079 0.000000 0.000000 0.000000 0.000000 0.000000 0.000000 4.516822 -1.391464 1.872304 9.104290 1.676372 -2.410452 -4.518462 -5.073891 11.617375 0.000000 0.000000 0.000000 4.516822 -1.391464 1.872304 1.043108 -5.624971 19.137901 0.000000 0.000000 0.000000 -87.822566 -10.431776 -68.173368 0.000029 -82.383611 0.000026 0.000000 0.000000 0.000000 4.516822 -1.391464 1.872304 -3.434368 -8.885738 -23.009312 0.000000 0.000000 0.000000 -91.015734 5.975814 69.995089 -0.000014 75.624783 0.000020 0.000000 0.000000 0.000000 
